<?xml version="1.0" encoding="UTF-8"?>
<svg width="45px" height="32px" viewBox="0 0 45 32" version="1.1" xmlns="http://www.w3.org/2000/svg" xmlns:xlink="http://www.w3.org/1999/xlink">
    <!-- Generator: sketchtool 64 (101010) - https://sketch.com -->
    <title>B2814BC1-9796-439A-8F10-807F3AAF1631</title>
    <desc>Created with sketchtool.</desc>
    <defs>
        <linearGradient x1="0%" y1="49.999395%" x2="99.9998295%" y2="49.999395%" id="linearGradient-1">
            <stop stop-color="#EA5E5E" stop-opacity="0" offset="5%"></stop>
            <stop stop-color="#EA5E5E" stop-opacity="0.27" offset="21%"></stop>
            <stop stop-color="#EA5E5E" stop-opacity="0.58" offset="42%"></stop>
            <stop stop-color="#EA5E5E" stop-opacity="0.81" offset="59%"></stop>
            <stop stop-color="#EA5E5E" stop-opacity="0.95" offset="72%"></stop>
            <stop stop-color="#EA5E5E" offset="79%"></stop>
        </linearGradient>
    </defs>
    <g id="Page-1" stroke="none" stroke-width="1" fill="none" fill-rule="evenodd">
        <g id="Map---deliveryman" transform="translate(-20.000000, -64.000000)" fill="url(#linearGradient-1)" fill-rule="nonzero">
            <g id="Logo-red-icon" transform="translate(16.000000, 64.000000)">
                <path d="M48.7240175,15.8216393 C48.7273811,17.8748322 48.3207399,19.9080379 47.5278689,21.8019672 C46.7538332,23.68286 45.6286494,25.3991214 44.212459,26.8590164 C42.7943143,28.3234254 41.1147097,29.5095868 39.2603279,30.3562842 C37.3429105,31.2247848 35.2589387,31.6640182 33.1540984,31.6432787 L0,31.6432787 L0,23.7989071 L32.9897268,23.7989071 C34.0512317,23.806484 35.1015794,23.5820915 36.0673224,23.1414208 C37.0011093,22.7187887 37.8479248,22.1257807 38.5643716,21.3927869 C39.2771651,20.6557923 39.8443382,19.790794 40.2360656,18.8432787 C41.0451072,16.9076596 41.0451072,14.7286245 40.2360656,12.7930055 C39.8395981,11.8486237 39.2689375,10.9872939 38.5538798,10.2539891 C37.8352436,9.5235786 36.9889385,8.93092797 36.0568306,8.50535519 C35.0977414,8.06737219 34.0545569,7.84417368 33.0002186,7.85136612 L0,7.85136612 L0,-7.53899981e-16 L33.1540984,-7.53899981e-16 C35.2462249,-0.0139501466 37.3160606,0.430097641 39.2183607,1.30098361 C41.0678003,2.1409749 42.7465592,3.3146834 44.1704918,4.76327869 C45.5903819,6.2137778 46.7224913,7.92024887 47.5068852,9.79234973 C48.3167048,11.6989507 48.7307607,13.7501934 48.7240175,15.8216393 L48.7240175,15.8216393 Z" id="Path"></path>
            </g>
        </g>
    </g>
</svg>