<?xml version="1.0" encoding="UTF-8"?>
<svg width="306px" height="56px" viewBox="0 0 306 56" version="1.1" xmlns="http://www.w3.org/2000/svg" xmlns:xlink="http://www.w3.org/1999/xlink">
    <!-- Generator: sketchtool 64 (101010) - https://sketch.com -->
    <title>BFCD5AD2-C5C9-4641-8909-5E1C9035700A</title>
    <desc>Created with sketchtool.</desc>
    <defs>
        <linearGradient x1="0%" y1="49.999395%" x2="99.9998295%" y2="49.999395%" id="linearGradient-1">
            <stop stop-color="#FFFFFF" stop-opacity="0" offset="5%"></stop>
            <stop stop-color="#FFFFFF" stop-opacity="0.33" offset="25%"></stop>
            <stop stop-color="#FFFFFF" stop-opacity="0.62" offset="44%"></stop>
            <stop stop-color="#FFFFFF" stop-opacity="0.82" offset="60%"></stop>
            <stop stop-color="#FFFFFF" stop-opacity="0.95" offset="72%"></stop>
            <stop stop-color="#FFFFFF" offset="79%"></stop>
        </linearGradient>
    </defs>
    <g id="Page-1" stroke="none" stroke-width="1" fill="none" fill-rule="evenodd">
        <g id="Splash-screen" transform="translate(-37.000000, -378.000000)" fill-rule="nonzero">
            <g id="Logo-white-Copy" transform="translate(32.000000, 378.000000)">
                <path d="M60.3151515,20.9997459 C60.3193153,23.7248529 59.8159368,26.4234317 58.8344467,28.9371557 C57.876273,31.4335768 56.4834151,33.7114904 54.730322,35.6491408 C52.9748096,37.5927825 50.8956378,39.1671192 48.6001103,40.290901 C46.2265515,41.4436212 43.646816,42.0265953 41.0412476,41.9990687 L0,41.9990687 L0,31.5876007 L40.8377731,31.5876007 C42.1518033,31.5976572 43.4520221,31.2998316 44.6475091,30.7149498 C45.803438,30.15401 46.8517055,29.3669382 47.7385904,28.3940698 C48.620953,27.4158913 49.323053,26.2678195 49.8079698,25.0102266 C50.8094773,22.4411699 50.8094773,19.5490384 49.8079698,16.9799816 C49.3171853,15.7265478 48.6107681,14.583345 47.7256027,13.6100638 C46.8360076,12.6406241 45.7883719,11.8540266 44.6345214,11.2891837 C43.447271,10.7078694 42.1559196,10.4116284 40.8507608,10.4211746 L0,10.4211746 L0,0.000423115741 L41.0412476,0.000423115741 C43.6310778,-0.0180922622 46.1933142,0.571271623 48.5481594,1.72715788 C50.837569,2.84203908 52.9156939,4.39984754 54.678371,6.3225004 C56.4360439,8.2476801 57.837475,10.5125994 58.8084713,12.9973515 C59.8109417,15.5278939 60.3234989,18.2504124 60.3151515,20.9997459 L60.3151515,20.9997459 Z" id="Path" fill="url(#linearGradient-1)"></path>
                <path d="M62.200979,27.2468905 C62.1876336,25.1789077 62.5962601,23.1331882 63.3977489,21.2554645 C64.1869703,19.4114833 65.320824,17.7641811 66.727891,16.4173176 C68.2170003,15.0055266 69.9378472,13.9082825 71.8011544,13.1825102 C73.8605858,12.3762562 76.0371243,11.9761121 78.227288,12.0011022 C80.3980286,11.9794161 82.5554489,12.3697626 84.6013882,13.1543814 C86.4724806,13.8671921 88.2024672,14.955093 89.7006683,16.3610601 C91.125118,17.7161062 92.2650024,19.3849078 93.0438188,21.2554645 C93.8570348,23.2283937 94.2653199,25.3683669 94.2405886,27.5281781 C94.2734475,29.6888222 93.8648038,31.8306749 93.0438188,33.8008917 C92.2490946,35.6650359 91.1064562,37.3313857 89.6876599,38.6952961 C88.190591,40.1110471 86.4484973,41.1914395 84.5623631,41.873846 C82.4768313,42.6399724 80.286733,43.0203562 78.084196,42.9989965 C75.9240103,43.0222389 73.7763652,42.6415849 71.7361125,41.873846 C69.8805401,41.1795256 68.1729787,40.0890357 66.7148826,38.6671673 C65.3059494,37.2733892 64.1807181,35.577845 63.4107572,33.6883767 C62.5895098,31.6582834 62.1771223,29.4625186 62.200979,27.2468905 L62.200979,27.2468905 Z M72.1393719,27.3594055 C72.1294098,28.2777311 72.2978118,29.1880954 72.6336899,30.0316378 C72.9477481,30.8129386 73.3882684,31.5273607 73.9345267,32.1412949 C74.4805858,32.7474899 75.1358309,33.2261639 75.8597651,33.5477329 C77.3763442,34.222908 79.0782318,34.222908 80.5948109,33.5477329 C81.3187451,33.2261639 81.9739902,32.7474899 82.5200493,32.1412949 C83.0663077,31.5273607 83.5068279,30.8129386 83.8208861,30.0316378 C84.1539515,29.2069244 84.3223899,28.3155332 84.3152041,27.4156631 C84.3188399,26.5343249 84.1503968,25.6620792 83.8208861,24.8559458 C83.5068279,24.0746451 83.0663077,23.3602229 82.5200493,22.7462888 C81.9739902,22.1400937 81.3187451,21.6614197 80.5948109,21.3398508 C79.0782318,20.6646756 77.3763442,20.6646756 75.8597651,21.3398508 C75.1358309,21.6614197 74.4805858,22.1400937 73.9345267,22.7462888 C73.3925013,23.353279 72.9523211,24.0576314 72.6336899,24.8278171 C72.3032296,25.6237022 72.1346587,26.4870174 72.1393719,27.3594055 L72.1393719,27.3594055 Z" id="Shape" fill="#FFFFFF"></path>
                <path d="M114.864907,20.4960579 C113.351026,19.5687041 111.658069,19.0667214 109.931964,19.0333794 C109.21812,18.997456 108.510193,19.192813 107.893349,19.595948 C107.406218,19.9068422 107.107719,20.4879686 107.113139,21.1148833 C107.103528,21.393639 107.1464,21.6715437 107.238979,21.9306079 C107.366337,22.1851348 107.559263,22.390953 107.792677,22.5213049 C108.188963,22.7548433 108.612537,22.9252659 109.051081,23.0276167 C109.610371,23.177635 110.340246,23.3651579 111.240704,23.5901853 C113.757511,24.152754 115.636728,25.1560013 116.878353,26.5999275 C118.137615,28.0940785 118.80845,30.0900123 118.740791,32.1412285 C118.763079,33.7186008 118.452684,35.2796704 117.83474,36.6980344 C117.241337,38.0338933 116.380044,39.1986408 115.317932,40.1015746 C114.152819,41.0712515 112.839427,41.7956588 111.442048,42.2393354 C109.818908,42.763945 108.13573,43.0198206 106.446185,42.9988031 C102.801984,42.9502593 99.237033,41.8035661 96.1272727,39.6796481 L99.449459,32.4787697 C101.999824,34.4290076 104.41596,35.4041265 106.697866,35.4041265 C107.426221,35.4385011 108.146502,35.2225247 108.761648,34.7853011 C109.254627,34.4499738 109.558815,33.8550292 109.567026,33.2101089 C109.576529,32.8916132 109.533882,32.5738573 109.441186,32.2724945 C109.330059,31.9929725 109.145796,31.7576157 108.912656,31.5974122 C108.546562,31.3430746 108.147578,31.1533239 107.729757,31.0348435 C107.209616,30.8660729 106.530078,30.6879262 105.691142,30.5004033 C102.872318,29.8753271 100.900818,28.9283365 99.7766441,27.6594317 C98.6524699,26.3905269 98.0931793,24.6559403 98.0987722,22.4556719 C98.0779988,20.9539563 98.3529509,19.4655064 98.9041507,18.095765 C99.4357215,16.814556 100.228784,15.6905671 101.219614,14.8141147 C102.30683,13.8676889 103.545341,13.1612755 104.868985,12.7326108 C106.413332,12.2264481 108.016481,11.9799686 109.625752,12.0012715 C112.477913,12.0068404 115.300799,12.6441985 117.931218,13.8765003 L114.864907,20.4960579 Z" id="Path" fill="#FFFFFF"></path>
                <polygon id="Path" fill="#FFFFFF" points="135.059804 21.9005497 135.059804 42 125.638302 42 125.638302 21.9005497 122.515152 21.9005497 122.515152 13.5427286 125.638302 13.5427286 125.638302 5 135.059804 5 135.059804 13.5427286 140.421212 13.5427286 140.421212 21.9005497"></polygon>
                <path d="M165.170331,13.8851904 L174.348485,13.8851904 L174.348485,42.1185657 L165.170331,42.1185657 L165.170331,38.981524 C163.209187,41.6599338 160.570047,42.9991388 157.252912,42.9991388 C155.468504,43.02072 153.699535,42.6364838 152.058682,41.8709045 C150.497713,41.1333728 149.09072,40.0566413 147.923469,38.7063449 C146.730538,37.3207186 145.796943,35.6942608 145.175066,33.9182286 C144.506074,32.0034046 144.172502,29.9685093 144.191692,27.9193243 C144.183902,25.9571953 144.508753,24.0104207 145.149851,22.1772538 C145.75568,20.4195551 146.662767,18.8038927 147.822611,17.4166555 C148.972612,16.0577242 150.361894,14.9658221 151.907393,14.2062327 C153.555063,13.3952965 155.344667,12.9852763 157.152053,13.0046173 C160.184164,12.9108865 163.106174,14.2479585 165.170331,16.6736719 L165.170331,13.8851904 Z M153.672423,27.9193243 C153.657539,29.6408747 154.260941,31.3003445 155.353404,32.5423331 C155.882629,33.1353639 156.517675,33.6036429 157.219292,33.9182286 C157.962707,34.2529045 158.76011,34.4213382 159.56426,34.413551 C160.351774,34.4177018 161.132037,34.2492664 161.858799,33.9182286 C162.560416,33.6036429 163.195462,33.1353639 163.724687,32.5423331 C164.250004,31.9485245 164.676614,31.2594679 164.985423,30.5060078 C165.305696,29.7274063 165.46907,28.8828391 165.464595,28.0293959 C165.468026,27.1671972 165.304776,26.3138933 164.985423,25.5252662 C164.681046,24.7609323 164.254106,24.0620247 163.724687,23.4614229 C163.195462,22.8683922 162.560416,22.4001131 161.858799,22.0855275 C161.132037,21.7544897 160.351774,21.5860542 159.56426,21.5902051 C158.76011,21.5824178 157.962707,21.7508515 157.219292,22.0855275 C156.517675,22.4001131 155.882629,22.8683922 155.353404,23.4614229 C154.834587,24.0448118 154.416091,24.7252352 154.117883,25.4702303 C153.814361,26.2437046 153.662618,27.077973 153.672423,27.9193243 L153.672423,27.9193243 Z" id="Shape" fill="#FFFFFF"></path>
                <polygon id="Path" fill="#FFFFFF" points="187.789683 14 194.141562 28.3547758 200.593163 14 211.10303 14 197.228618 42 190.911425 42 177.175758 14"></polygon>
                <path d="M231.143863,13.8851904 L240.318182,13.8851904 L240.318182,42.1185657 L231.143863,42.1185657 L231.143863,38.981524 C229.183538,41.6599338 226.545502,42.9991388 223.229753,42.9991388 C221.44609,43.02072 219.67786,42.6364838 218.037693,41.8709045 C216.471395,41.1295855 215.06047,40.046434 213.891607,38.6879996 C212.699174,37.3023733 211.765969,35.6759155 211.144352,33.8998833 C210.475639,31.9850593 210.142207,29.950164 210.161389,27.900979 C210.159694,25.9441531 210.488652,24.003775 211.13175,22.1772538 C211.737325,20.4195551 212.644033,18.8038927 213.803392,17.4166555 C216.193705,14.5590924 219.588896,12.9535057 223.133137,13.0046173 C226.163981,12.9108865 229.08477,14.2479585 231.148064,16.6736719 L231.143863,13.8851904 Z M219.65076,27.9193243 C219.635882,29.6408747 220.239032,31.3003445 221.331038,32.5423331 C221.860043,33.1353639 222.494823,33.6036429 223.196147,33.9182286 C223.939251,34.2529045 224.736321,34.4213382 225.540135,34.413551 C226.32732,34.4177018 227.107257,34.2492664 227.833715,33.9182286 C228.535039,33.6036429 229.169819,33.1353639 229.698824,32.5423331 C230.222539,31.9473037 230.6488,31.2585241 230.959032,30.5060078 C231.279172,29.7274063 231.442478,28.8828391 231.438005,28.0293959 C231.441434,27.1671972 231.278252,26.3138933 230.959032,25.5252662 C230.653219,24.7618644 230.226631,24.0632427 229.698824,23.4614229 C229.169819,22.8683922 228.535039,22.4001131 227.833715,22.0855275 C227.107257,21.7544897 226.32732,21.5860542 225.540135,21.5902051 C224.736321,21.5824178 223.939251,21.7508515 223.196147,22.0855275 C222.494823,22.4001131 221.860043,22.8683922 221.331038,23.4614229 C220.812438,24.0448118 220.394117,24.7252352 220.096034,25.4702303 C219.792639,26.2437046 219.640959,27.077973 219.65076,27.9193243 L219.65076,27.9193243 Z" id="Shape" fill="#FFFFFF"></path>
                <path d="M256.042941,56 L246.915152,56 L246.915152,13.877177 L256.042941,13.877177 L256.042941,16.9994149 C257.99009,14.3336445 260.651662,13.0003697 264.027655,13.0003697 C265.808497,12.9860538 267.571407,13.3877046 269.196707,14.1784456 C270.761473,14.9398306 272.174633,16.0251514 273.357163,17.3737182 C274.541887,18.7527472 275.469504,20.3679518 276.088776,22.1301098 C276.751997,23.9995383 277.085589,25.9877811 277.072157,27.9911528 C277.088473,29.9770022 276.754673,31.947888 276.088776,33.7974197 C275.460802,35.5391326 274.537029,37.1371222 273.365568,38.5081645 C270.979738,41.296496 267.624575,42.866871 264.12011,42.8354766 C261.081355,42.9211036 258.15077,41.6080499 256.051346,39.2202539 L256.042941,56 Z M267.541041,28.0094115 C267.54561,27.1574014 267.403061,26.3120027 267.120681,25.5170988 C266.840797,24.7487821 266.420499,24.0500245 265.885152,23.462995 C265.338821,22.8755729 264.697818,22.4021236 263.994035,22.0662044 C263.254488,21.7164975 262.455618,21.539221 261.649051,21.5458314 C260.869523,21.5398326 260.097151,21.7076204 259.379711,22.0388163 C258.687379,22.3557301 258.06125,22.8215462 257.539024,23.4082189 C257.006858,24.0035856 256.579563,24.6997684 256.27828,25.4623227 C255.956967,26.2465435 255.793627,27.0962823 255.799197,27.9546354 C255.793674,28.8013475 255.948148,29.6402868 256.253065,30.41956 C256.544319,31.1718657 256.97324,31.852063 257.513809,32.4188878 C258.062588,32.9960408 258.703373,33.460049 259.404926,33.7882903 C260.127434,34.1355639 260.909402,34.3129032 261.69948,34.3086633 C263.245824,34.3217351 264.730171,33.6491289 265.809507,32.4462758 C266.332099,31.8528739 266.758377,31.1676092 267.070251,30.41956 C267.384696,29.6622224 267.545231,28.8401892 267.541041,28.0094115 L267.541041,28.0094115 Z" id="Shape" fill="#FFFFFF"></path>
                <path d="M289.970166,56 L280.842424,56 L280.842424,13.8768598 L289.970166,13.8768598 L289.970166,16.9991212 C291.931314,14.3333308 294.592872,13.0004356 297.954839,13.0004356 C299.735751,12.984872 301.498818,13.3865638 303.123865,14.1781306 C304.689807,14.9372637 306.10334,16.0228847 307.284299,17.3734274 C308.470291,18.7514042 309.398069,20.3669072 310.015898,22.1298548 C310.679115,23.9992973 311.012706,25.9875551 310.999274,27.9909419 C311.017741,29.9829376 310.683905,31.9602568 310.015898,33.8155113 C309.387927,35.5572373 308.464159,37.155239 307.292704,38.5262917 C304.906886,41.3146442 301.551741,42.8850309 298.047293,42.8536364 C295.008653,42.9386903 292.078288,41.6257189 289.978571,39.2383863 L289.970166,56 Z M301.468095,28.0092007 C301.474898,27.1569834 301.332277,26.3111499 301.04785,25.5168693 C300.771155,24.7467591 300.350459,24.0473308 299.812326,23.46275 C299.267485,22.873366 298.626128,22.3996501 297.92122,22.0659488 C296.446982,21.378953 294.779564,21.369074 293.298514,22.0385606 C292.60674,22.3565789 291.980806,22.8222561 291.457837,23.4079735 C290.928417,24.0057455 290.501476,24.7013601 290.197099,25.4620928 C289.877746,26.2470043 289.714495,27.0962877 289.718019,27.9544242 C289.712496,28.8011427 289.866969,29.6400883 290.171884,30.4193674 C290.464665,31.1707721 290.893387,31.8506609 291.432622,32.4187102 C291.982956,32.9937656 292.623367,33.4575087 293.323729,33.7881231 C294.046351,34.1350046 294.828236,34.3123275 295.618272,34.3085 C296.397796,34.3144988 297.170164,34.1467097 297.8876,33.8155113 C298.579374,33.497493 299.205308,33.0318158 299.728277,32.4460985 C300.253594,31.8550876 300.680206,31.1692776 300.989015,30.4193674 C301.306351,29.6627242 301.469757,28.8406553 301.468095,28.0092007 L301.468095,28.0092007 Z" id="Shape" fill="#FFFFFF"></path>
            </g>
        </g>
    </g>
</svg>