<?xml version="1.0" encoding="UTF-8"?>
<svg width="56px" height="69px" viewBox="0 0 56 69" version="1.1" xmlns="http://www.w3.org/2000/svg" xmlns:xlink="http://www.w3.org/1999/xlink">
    <!-- Generator: sketchtool 64 (101010) - https://sketch.com -->
    <title>567F9066-F639-4E98-B515-D683DA9C1C71</title>
    <desc>Created with sketchtool.</desc>
    <defs>
        <path d="M28,4.66666667 C18.9933333,4.66666667 11.6666667,11.9933333 11.6666667,21 C11.6666667,33.25 28,51.3333333 28,51.3333333 C28,51.3333333 44.3333333,33.25 44.3333333,21 C44.3333333,11.9933333 37.0066667,4.66666667 28,4.66666667 Z M28,9.33333333 C30.5666667,9.33333333 32.6666667,11.4333333 32.6666667,14 C32.6666667,16.59 30.5666667,18.6666667 28,18.6666667 C25.4333333,18.6666667 23.3333333,16.59 23.3333333,14 C23.3333333,11.4333333 25.4333333,9.33333333 28,9.33333333 Z M28,32.6666667 C24.1033333,32.6666667 20.6733333,30.6833333 18.6666667,27.65 C18.7133333,24.57 24.8966667,22.8666667 28,22.8666667 C31.1033333,22.8666667 37.2866667,24.57 37.3333333,27.65 C35.3266667,30.6833333 31.8966667,32.6666667 28,32.6666667 Z" id="path-1"></path>
        <filter x="-67.3%" y="-30.0%" width="234.7%" height="194.3%" filterUnits="objectBoundingBox" id="filter-2">
            <feOffset dx="0" dy="8" in="SourceAlpha" result="shadowOffsetOuter1"></feOffset>
            <feGaussianBlur stdDeviation="6" in="shadowOffsetOuter1" result="shadowBlurOuter1"></feGaussianBlur>
            <feColorMatrix values="0 0 0 0 0.51171875   0 0 0 0 0.113108565   0 0 0 0 0.113108565  0 0 0 0.32 0" type="matrix" in="shadowBlurOuter1"></feColorMatrix>
        </filter>
    </defs>
    <g id="Page-1" stroke="none" stroke-width="1" fill="none" fill-rule="evenodd">
        <g id="Deliverers-info-modal" transform="translate(-47.000000, -189.000000)">
            <g id="person_pin_circle-24px-(1)" transform="translate(47.000000, 188.000000)">
                <rect id="Rectangle" x="0" y="0" width="56" height="56"></rect>
                <g id="Shape" fill-rule="nonzero">
                    <use fill="black" fill-opacity="1" filter="url(#filter-2)" xlink:href="#path-1"></use>
                    <use fill="#EA5E5E" xlink:href="#path-1"></use>
                </g>
            </g>
        </g>
    </g>
</svg>